<mxfile host="Electron" modified="2024-01-19T15:35:09.272Z" agent="Mozilla/5.0 (Macintosh; Intel Mac OS X 10_15_7) AppleWebKit/537.36 (KHTML, like Gecko) draw.io/22.1.2 Chrome/114.0.5735.289 Electron/25.9.4 Safari/537.36" etag="KJE80qkj1ajmfn-BkV-5" version="22.1.2" type="device">
  <diagram name="Page-1" id="kUBnyqZg6GTaymuyxGMD">
    <mxGraphModel dx="1306" dy="947" grid="1" gridSize="10" guides="1" tooltips="1" connect="1" arrows="1" fold="1" page="1" pageScale="1" pageWidth="827" pageHeight="1169" math="0" shadow="0">
      <root>
        <mxCell id="0" />
        <mxCell id="1" parent="0" />
        <mxCell id="qaeNC8w3N-k8zOhyHuET-1" value="" style="edgeStyle=orthogonalEdgeStyle;rounded=0;orthogonalLoop=1;jettySize=auto;html=1;" edge="1" parent="1" source="qaeNC8w3N-k8zOhyHuET-3">
          <mxGeometry relative="1" as="geometry">
            <mxPoint x="330" y="390" as="targetPoint" />
          </mxGeometry>
        </mxCell>
        <mxCell id="qaeNC8w3N-k8zOhyHuET-2" value="UserOps" style="edgeLabel;html=1;align=center;verticalAlign=middle;resizable=0;points=[];" vertex="1" connectable="0" parent="qaeNC8w3N-k8zOhyHuET-1">
          <mxGeometry x="0.15" y="2" relative="1" as="geometry">
            <mxPoint x="-20" y="2" as="offset" />
          </mxGeometry>
        </mxCell>
        <mxCell id="qaeNC8w3N-k8zOhyHuET-3" value="Bundler" style="rounded=1;whiteSpace=wrap;html=1;fillColor=#f8cecc;strokeColor=#b85450;" vertex="1" parent="1">
          <mxGeometry x="70" y="360" width="120" height="60" as="geometry" />
        </mxCell>
        <mxCell id="qaeNC8w3N-k8zOhyHuET-4" value="" style="edgeStyle=orthogonalEdgeStyle;rounded=0;orthogonalLoop=1;jettySize=auto;html=1;" edge="1" parent="1" source="qaeNC8w3N-k8zOhyHuET-5" target="qaeNC8w3N-k8zOhyHuET-10">
          <mxGeometry relative="1" as="geometry" />
        </mxCell>
        <mxCell id="qaeNC8w3N-k8zOhyHuET-5" value="Entrypoint" style="whiteSpace=wrap;html=1;aspect=fixed;fillColor=#f5f5f5;fontColor=#333333;strokeColor=#666666;" vertex="1" parent="1">
          <mxGeometry x="334" y="350" width="80" height="80" as="geometry" />
        </mxCell>
        <mxCell id="qaeNC8w3N-k8zOhyHuET-6" style="edgeStyle=orthogonalEdgeStyle;rounded=0;orthogonalLoop=1;jettySize=auto;html=1;entryX=0.5;entryY=0;entryDx=0;entryDy=0;" edge="1" parent="1" source="qaeNC8w3N-k8zOhyHuET-10" target="qaeNC8w3N-k8zOhyHuET-13">
          <mxGeometry relative="1" as="geometry" />
        </mxCell>
        <mxCell id="qaeNC8w3N-k8zOhyHuET-7" value="validatePaymasterUserOp()" style="edgeLabel;html=1;align=center;verticalAlign=middle;resizable=0;points=[];" vertex="1" connectable="0" parent="qaeNC8w3N-k8zOhyHuET-6">
          <mxGeometry x="-0.2" y="2" relative="1" as="geometry">
            <mxPoint as="offset" />
          </mxGeometry>
        </mxCell>
        <mxCell id="qaeNC8w3N-k8zOhyHuET-10" value="Paymaster?" style="rhombus;whiteSpace=wrap;html=1;" vertex="1" parent="1">
          <mxGeometry x="494" y="350" width="80" height="80" as="geometry" />
        </mxCell>
        <mxCell id="qaeNC8w3N-k8zOhyHuET-11" style="edgeStyle=orthogonalEdgeStyle;rounded=0;orthogonalLoop=1;jettySize=auto;html=1;entryX=0.5;entryY=1;entryDx=0;entryDy=0;" edge="1" parent="1" source="qaeNC8w3N-k8zOhyHuET-13" target="qaeNC8w3N-k8zOhyHuET-5">
          <mxGeometry relative="1" as="geometry" />
        </mxCell>
        <mxCell id="qaeNC8w3N-k8zOhyHuET-21" value="&lt;div style=&quot;color: rgb(204, 204, 204); background-color: rgb(31, 31, 31); font-family: Menlo, Monaco, &amp;quot;Courier New&amp;quot;, monospace; font-size: 12px; line-height: 18px;&quot;&gt;bytes &lt;span style=&quot;color: #569cd6;&quot;&gt;memory&lt;/span&gt; &lt;span style=&quot;color: #9cdcfe;&quot;&gt;context&lt;/span&gt;, &lt;span style=&quot;color: #4ec9b0;&quot;&gt;uint256&lt;/span&gt; &lt;span style=&quot;color: #9cdcfe;&quot;&gt;validationData&lt;/span&gt;&lt;/div&gt;" style="edgeLabel;html=1;align=center;verticalAlign=middle;resizable=0;points=[];" vertex="1" connectable="0" parent="qaeNC8w3N-k8zOhyHuET-11">
          <mxGeometry x="-0.0696" relative="1" as="geometry">
            <mxPoint x="-67" y="20" as="offset" />
          </mxGeometry>
        </mxCell>
        <mxCell id="qaeNC8w3N-k8zOhyHuET-13" value="Paymaster" style="whiteSpace=wrap;html=1;aspect=fixed;fillColor=#f5f5f5;fontColor=#333333;strokeColor=#666666;" vertex="1" parent="1">
          <mxGeometry x="494" y="500" width="80" height="80" as="geometry" />
        </mxCell>
      </root>
    </mxGraphModel>
  </diagram>
</mxfile>
